<svg width="36" height="36" viewBox="0 0 36 36" fill="none" xmlns="http://www.w3.org/2000/svg">
<rect width="36" height="36" rx="9" fill="#3F4152"/>
<path fill-rule="evenodd" clip-rule="evenodd" d="M13.5033 13.2831C13.4979 13.018 13.598 12.7616 13.7816 12.5703C13.9652 12.3791 14.2173 12.2685 14.4824 12.2631L22.9659 12.0894C23.2311 12.084 23.4874 12.1842 23.6787 12.3678C23.87 12.5514 23.9806 12.8035 23.986 13.0686L24.1597 21.5521C24.1605 21.8143 24.0583 22.0663 23.8751 22.2539C23.6918 22.4415 23.4423 22.5496 23.1801 22.555C22.918 22.5603 22.6642 22.4625 22.4735 22.2826C22.2827 22.1027 22.1703 21.855 22.1604 21.593L22.0362 15.5231L14.013 23.8815C13.8293 24.0729 13.5772 24.1834 13.312 24.1888C13.0468 24.1943 12.7904 24.0941 12.5991 23.9105C12.4077 23.7268 12.2972 23.4747 12.2918 23.2095C12.2863 22.9444 12.3865 22.6879 12.5701 22.4966L20.5933 14.1381L14.5234 14.2623C14.2582 14.2677 14.0019 14.1676 13.8106 13.984C13.6193 13.8003 13.5087 13.5483 13.5033 13.2831Z" fill="#EBEBEB"/>
</svg>
