<svg width="104" height="18" viewBox="0 0 104 18" fill="none" xmlns="http://www.w3.org/2000/svg">
<path d="M4.856 13.64H12.104V17H0.2V13.88L7.4 3.512H0.2V0.151999H12.104V3.272L4.856 13.64ZM27.9089 10.088C27.9089 10.472 27.8849 10.872 27.8369 11.288H18.5489C18.6129 12.12 18.8769 12.76 19.3409 13.208C19.8209 13.64 20.4049 13.856 21.0929 13.856C22.1169 13.856 22.8289 13.424 23.2289 12.56H27.5969C27.3729 13.44 26.9649 14.232 26.3729 14.936C25.7969 15.64 25.0689 16.192 24.1889 16.592C23.3089 16.992 22.3249 17.192 21.2369 17.192C19.9249 17.192 18.7569 16.912 17.7329 16.352C16.7089 15.792 15.9089 14.992 15.3329 13.952C14.7569 12.912 14.4689 11.696 14.4689 10.304C14.4689 8.912 14.7489 7.696 15.3089 6.656C15.8849 5.616 16.6849 4.816 17.7089 4.256C18.7329 3.696 19.9089 3.416 21.2369 3.416C22.5329 3.416 23.6849 3.688 24.6929 4.232C25.7009 4.776 26.4849 5.552 27.0449 6.56C27.6209 7.568 27.9089 8.744 27.9089 10.088ZM23.7089 9.008C23.7089 8.304 23.4689 7.744 22.9889 7.328C22.5089 6.912 21.9089 6.704 21.1889 6.704C20.5009 6.704 19.9169 6.904 19.4369 7.304C18.9729 7.704 18.6849 8.272 18.5729 9.008H23.7089ZM34.6779 5.84C35.1579 5.104 35.7579 4.528 36.4779 4.112C37.1979 3.68 37.9979 3.464 38.8779 3.464V7.808H37.7499C36.7259 7.808 35.9579 8.032 35.4459 8.48C34.9339 8.912 34.6779 9.68 34.6779 10.784V17H30.5739V3.608H34.6779V5.84ZM47.4356 17.192C46.1236 17.192 44.9396 16.912 43.8836 16.352C42.8436 15.792 42.0196 14.992 41.4116 13.952C40.8196 12.912 40.5236 11.696 40.5236 10.304C40.5236 8.928 40.8276 7.72 41.4356 6.68C42.0436 5.624 42.8756 4.816 43.9316 4.256C44.9876 3.696 46.1716 3.416 47.4836 3.416C48.7956 3.416 49.9796 3.696 51.0356 4.256C52.0916 4.816 52.9236 5.624 53.5316 6.68C54.1396 7.72 54.4436 8.928 54.4436 10.304C54.4436 11.68 54.1316 12.896 53.5076 13.952C52.8996 14.992 52.0596 15.792 50.9876 16.352C49.9316 16.912 48.7476 17.192 47.4356 17.192ZM47.4356 13.64C48.2196 13.64 48.8836 13.352 49.4276 12.776C49.9876 12.2 50.2676 11.376 50.2676 10.304C50.2676 9.232 49.9956 8.408 49.4516 7.832C48.9236 7.256 48.2676 6.968 47.4836 6.968C46.6836 6.968 46.0196 7.256 45.4916 7.832C44.9636 8.392 44.6996 9.216 44.6996 10.304C44.6996 11.376 44.9556 12.2 45.4676 12.776C45.9956 13.352 46.6516 13.64 47.4356 13.64ZM63.4328 0.151999C65.2088 0.151999 66.7608 0.503999 68.0888 1.208C69.4168 1.912 70.4408 2.904 71.1608 4.184C71.8968 5.448 72.2648 6.912 72.2648 8.576C72.2648 10.224 71.8968 11.688 71.1608 12.968C70.4408 14.248 69.4088 15.24 68.0648 15.944C66.7368 16.648 65.1928 17 63.4328 17H57.1208V0.151999H63.4328ZM63.1688 13.448C64.7208 13.448 65.9288 13.024 66.7928 12.176C67.6568 11.328 68.0888 10.128 68.0888 8.576C68.0888 7.024 67.6568 5.816 66.7928 4.952C65.9288 4.088 64.7208 3.656 63.1688 3.656H61.2248V13.448H63.1688ZM87.6823 10.088C87.6823 10.472 87.6583 10.872 87.6103 11.288H78.3223C78.3863 12.12 78.6503 12.76 79.1143 13.208C79.5943 13.64 80.1783 13.856 80.8663 13.856C81.8903 13.856 82.6023 13.424 83.0023 12.56H87.3703C87.1463 13.44 86.7383 14.232 86.1463 14.936C85.5703 15.64 84.8423 16.192 83.9623 16.592C83.0823 16.992 82.0983 17.192 81.0103 17.192C79.6983 17.192 78.5303 16.912 77.5063 16.352C76.4823 15.792 75.6823 14.992 75.1063 13.952C74.5303 12.912 74.2423 11.696 74.2423 10.304C74.2423 8.912 74.5223 7.696 75.0823 6.656C75.6583 5.616 76.4583 4.816 77.4823 4.256C78.5063 3.696 79.6823 3.416 81.0103 3.416C82.3063 3.416 83.4583 3.688 84.4663 4.232C85.4743 4.776 86.2583 5.552 86.8183 6.56C87.3943 7.568 87.6823 8.744 87.6823 10.088ZM83.4823 9.008C83.4823 8.304 83.2423 7.744 82.7623 7.328C82.2823 6.912 81.6823 6.704 80.9623 6.704C80.2743 6.704 79.6903 6.904 79.2103 7.304C78.7463 7.704 78.4583 8.272 78.3463 9.008H83.4823ZM96.3714 13.16L99.2754 3.608H103.643L98.8914 17H93.8274L89.0754 3.608H93.4674L96.3714 13.16Z" fill="white"/>
</svg>
