<svg width="21" height="20" viewBox="0 0 21 20" fill="none" xmlns="http://www.w3.org/2000/svg">
<path d="M10.4997 0C4.75596 0 0.0830078 4.48603 0.0830078 9.99999C0.0830078 15.514 4.75596 20 10.4997 20C16.2434 20 20.9163 15.514 20.9163 9.99999C20.9163 4.48603 16.2434 0 10.4997 0ZM10.4997 1.5C15.3989 1.5 19.3538 5.29669 19.3538 9.99999C19.3538 13.8327 16.7272 17.0612 13.1038 18.126V15.5683C13.1038 14.6133 12.5306 13.7943 11.7021 13.3867C13.3365 13.0865 14.6819 12.1992 15.3151 11.0037C15.9483 9.8082 15.7916 8.45152 14.8942 7.36034C15.1252 6.6777 15.3833 5.48033 14.7701 4.53808C13.5879 4.53808 12.825 5.31604 12.4609 5.7998C11.8385 5.60351 11.1725 5.5017 10.4997 5.5C9.82641 5.50057 9.15967 5.60139 8.53638 5.79687C8.17141 5.31288 7.40917 4.53808 6.22925 4.53808C5.52557 5.6194 5.96057 6.78228 6.19365 7.25683C5.23511 8.34383 5.03211 9.72287 5.65049 10.9468C6.26886 12.1707 7.62987 13.0837 9.2922 13.3896C8.61191 13.7262 8.10242 14.337 7.94637 15.0781H7.26176C6.58624 15.0781 6.32377 14.8146 5.95867 14.3701C5.59825 13.9256 5.21071 13.6269 4.74508 13.5029C4.49404 13.4774 4.32492 13.6607 4.54367 13.8232C5.28273 14.3062 5.33374 15.0968 5.63009 15.6142C5.89988 16.0802 6.45264 16.5 7.07764 16.5H7.89551V18.126C4.27211 17.0612 1.64552 13.8327 1.64552 9.99999C1.64552 5.29669 5.6004 1.5 10.4997 1.5Z" fill="white"/>
</svg>
