<svg width="30" height="20" viewBox="0 0 30 20" fill="none" xmlns="http://www.w3.org/2000/svg">
<path d="M14.4291 0.661824C12.8764 0.647181 11.7045 0.720418 10.7231 1.22579C10.3202 1.43087 10.0346 1.69454 9.81487 2.00215C9.69768 2.15596 9.58782 2.29512 9.53654 2.61739C9.50725 2.7712 9.48528 3.02755 9.6464 3.30587C9.80754 3.59151 10.1518 3.78196 10.3861 3.81857C10.5619 3.84055 10.9355 3.99436 11.0014 4.08226C11.1552 4.30199 11.2138 4.46312 11.2358 4.55101C11.2577 4.63891 11.2504 4.58031 11.2504 4.58031V4.66821C11.2504 4.66821 11.309 5.59107 11.2724 6.54321C11.2504 7.01196 11.2065 7.50269 11.1332 7.83227C11.06 8.16186 10.8769 8.24243 11.1405 8.08862C10.9574 8.19848 11.0234 8.24243 10.7963 8.12524C10.5619 8.01539 9.95403 7.50269 9.15569 6.06713C8.35736 4.62426 7.77875 3.87719 7.6469 3.71605C7.59564 3.56957 7.47112 3.26927 7.04632 2.93969C6.497 2.51489 5.93304 2.50756 5.93304 2.50756L5.88177 2.50022H1.78754C1.78754 2.50022 1.55317 2.50756 1.28217 2.56615C1.01118 2.62474 0.622999 2.69067 0.256793 3.14476H0.249461C-0.124076 3.62084 -0.0581512 4.05297 -0.0288637 4.31663C0.00775508 4.58762 0.0883238 4.80002 0.0883238 4.80002L0.102968 4.84397L0.124943 4.88792C0.124943 4.88792 3.25239 11.5603 6.98774 15.6252C10.496 19.4485 14.561 19.3752 14.561 19.3752H16.8681L16.9194 19.3679C16.9194 19.3679 17.6591 19.4045 18.2817 18.7087C18.5966 18.3498 18.6699 18.0129 18.7065 17.7639C18.7504 17.5075 18.7504 17.3025 18.7504 17.3025V17.3611C18.7504 17.3611 18.7797 16.8777 18.9116 16.3723C18.9775 16.1233 19.0727 15.8743 19.1606 15.7351C19.2045 15.6545 19.2045 15.6765 19.2192 15.6545C19.3803 15.7717 19.644 16.0427 19.9223 16.387C20.4936 17.0681 21.1381 18.0129 22.039 18.6648C22.6909 19.1262 23.3061 19.3313 23.7748 19.4045C24.0898 19.4558 24.3168 19.4485 24.4706 19.4338L27.6567 19.3752H27.686C27.686 19.3752 28.3452 19.3606 29.0043 18.9431C29.3266 18.738 29.7001 18.3645 29.8247 17.8298C29.9565 17.2952 29.81 16.7166 29.5024 16.1819C29.6049 16.365 29.4804 16.1233 29.3852 15.9329C29.29 15.7424 29.1435 15.4861 28.9238 15.1638C28.499 14.5339 27.7959 13.6477 26.6313 12.5198C26.082 11.9924 25.7304 11.6994 25.5107 11.4944C25.5766 11.3992 25.5839 11.3918 25.833 11.0989C26.2285 10.6374 26.8071 9.95627 27.5395 8.93822C28.4184 7.70776 29.0556 6.70433 29.4658 5.86937C29.8759 5.04173 30.2055 4.35327 29.8393 3.50365C29.6416 3.04223 29.29 2.86645 29.0337 2.75657C28.77 2.64672 28.5356 2.60277 28.3159 2.56615C27.8838 2.50022 27.5029 2.50022 27.5029 2.50022L23.7895 2.52953C23.6797 2.50756 23.2549 2.42699 22.7055 2.77855C22.1636 3.11547 22.039 3.47434 22.0098 3.58422C21.9219 3.70874 21.3066 4.58031 20.4497 6.10375C19.5854 7.64183 18.9995 8.05932 18.9263 8.09594C18.9043 8.07396 18.9482 8.08129 18.8457 8.0227C18.8017 7.98608 18.7578 7.95677 18.7212 7.56128C18.6919 7.16577 18.7285 6.54321 18.7285 5.8108C18.7285 4.2361 18.8677 3.41579 18.7871 2.63209C18.7505 2.23658 18.5893 1.75319 18.2378 1.43093C17.8862 1.11599 17.5054 0.998799 17.1099 0.896256C16.4873 0.742449 15.6449 0.676468 14.4291 0.661824ZM14.4145 2.53682C15.5497 2.55147 16.3481 2.63937 16.641 2.71261C16.89 2.77853 16.9267 2.80782 16.9194 2.79317C16.9194 2.80782 16.9194 2.80051 16.9194 2.82248C16.9487 3.13742 16.8534 4.14816 16.8534 5.81076C16.8534 6.46262 16.8022 7.09249 16.8534 7.72238C16.9047 8.35227 17.1318 9.1213 17.7983 9.57541H17.8056C17.725 9.52414 18.6479 10.2126 19.5268 9.89768C20.4057 9.57543 21.1015 8.76976 22.0903 7.01926C22.9545 5.46653 23.5917 4.59494 23.5917 4.59494L23.6503 4.50706L23.6943 4.41917C23.6943 4.41917 23.6796 4.41184 23.6943 4.40453L27.5029 4.37524C27.5029 4.37524 27.7666 4.37524 28.0229 4.41919C28.0302 4.41919 28.0375 4.41919 28.0449 4.41919C28.0082 4.43384 28.0375 4.52905 27.7812 5.04908C27.4516 5.71559 26.8583 6.66773 26.016 7.84694C25.3203 8.80641 24.8002 9.42897 24.412 9.88307C24.0239 10.3298 23.7309 10.5422 23.5405 11.1282C23.4453 11.4138 23.4672 11.8386 23.6064 12.1243C23.7382 12.4026 23.8994 12.5564 24.0605 12.7102C24.3828 13.0178 24.7636 13.3181 25.3203 13.8674C26.4116 14.9221 27.0268 15.6985 27.3711 16.2112C27.5468 16.4749 27.6494 16.658 27.7153 16.7898C27.7812 16.9216 27.7373 16.8704 27.8837 17.1194C28.0083 17.3464 27.9863 17.3757 27.9863 17.3611C27.8618 17.4343 27.5468 17.5003 27.5395 17.5003L24.3535 17.5589L24.2656 17.5808C24.2656 17.5808 24.2729 17.5882 24.0752 17.5589C23.8701 17.5222 23.5478 17.4343 23.1377 17.1414C22.6323 16.7825 21.9951 15.9475 21.3652 15.1858C21.0576 14.8123 20.7426 14.4461 20.3471 14.1531C19.9516 13.8601 19.3291 13.5891 18.6919 13.8015C18.1425 13.9773 17.7837 14.3801 17.5566 14.7537C17.3296 15.1345 17.1977 15.53 17.0952 15.8889C16.9048 16.614 16.8755 17.2659 16.8755 17.2659V17.3245C16.8755 17.3245 16.8755 17.3684 16.8608 17.4343C16.8242 17.449 16.7729 17.4856 16.7436 17.5003H14.5024C14.5024 17.5003 11.4043 17.6614 8.36472 14.3655C5.11278 10.8133 2.21971 4.87332 1.97801 4.37528H5.74998C5.7866 4.38992 5.91843 4.44121 5.90379 4.43387C5.81591 4.36064 5.94774 4.52177 5.94774 4.52177L6.00633 4.66094L6.10887 4.77812C6.10887 4.77812 6.68748 5.48125 7.51512 6.9754C8.40136 8.57941 9.14842 9.41436 9.98339 9.81721C10.8183 10.22 11.6973 9.93439 12.0708 9.72199C12.7666 9.31917 12.8472 8.75521 12.9643 8.23517C13.0815 7.71516 13.1181 7.15851 13.1401 6.61652C13.1841 5.57648 13.1255 4.69026 13.1255 4.62434C13.1181 4.60236 13.1181 4.34601 13.0449 4.06771C12.9643 3.78207 12.8179 3.40853 12.5395 3.01302C12.4224 2.85188 12.3125 2.93245 12.188 2.81526C12.708 2.66879 13.2646 2.52218 14.4145 2.53682Z" fill="white"/>
</svg>
