<svg width="25" height="24" viewBox="0 0 25 24" fill="none" xmlns="http://www.w3.org/2000/svg">
<path d="M12.4997 2C6.75596 2 2.08301 6.48603 2.08301 12C2.08301 17.514 6.75596 22 12.4997 22C18.2434 22 22.9163 17.514 22.9163 12C22.9163 6.48603 18.2434 2 12.4997 2ZM12.4997 3.5C17.3989 3.5 21.3538 7.29669 21.3538 12C21.3538 15.8327 18.7272 19.0612 15.1038 20.126V17.5683C15.1038 16.6133 14.5306 15.7943 13.7021 15.3867C15.3365 15.0865 16.6819 14.1992 17.3151 13.0037C17.9483 11.8082 17.7916 10.4515 16.8942 9.36034C17.1252 8.6777 17.3833 7.48033 16.7701 6.53808C15.5879 6.53808 14.825 7.31604 14.4609 7.7998C13.8385 7.60351 13.1725 7.5017 12.4997 7.5C11.8264 7.50057 11.1597 7.60139 10.5364 7.79687C10.1714 7.31288 9.40917 6.53808 8.22925 6.53808C7.52557 7.6194 7.96057 8.78228 8.19365 9.25683C7.23511 10.3438 7.03211 11.7229 7.65049 12.9468C8.26886 14.1707 9.62987 15.0837 11.2922 15.3896C10.6119 15.7262 10.1024 16.337 9.94637 17.0781H9.26176C8.58624 17.0781 8.32377 16.8146 7.95867 16.3701C7.59825 15.9256 7.21071 15.6269 6.74508 15.5029C6.49404 15.4774 6.32492 15.6607 6.54367 15.8232C7.28273 16.3062 7.33374 17.0968 7.63009 17.6142C7.89988 18.0802 8.45264 18.5 9.07764 18.5H9.89551V20.126C6.27211 19.0612 3.64552 15.8327 3.64552 12C3.64552 7.29669 7.6004 3.5 12.4997 3.5Z" fill="white"/>
</svg>
