<svg width="22" height="29" viewBox="0 0 22 29" fill="none" xmlns="http://www.w3.org/2000/svg">
<path fill-rule="evenodd" clip-rule="evenodd" d="M0.200195 4.2498C0.200195 3.2685 0.57948 2.32739 1.25461 1.63351C1.92974 0.939625 2.84542 0.549805 3.8002 0.549805C3.8002 2.02176 4.36912 3.43342 5.38182 4.47425C6.39452 5.51507 7.76803 6.0998 9.2002 6.0998H12.8002C14.2324 6.0998 15.6059 5.51507 16.6186 4.47425C17.6313 3.43342 18.2002 2.02176 18.2002 0.549805C19.155 0.549805 20.0706 0.939625 20.7458 1.63351C21.4209 2.32739 21.8002 3.2685 21.8002 4.2498V24.5998C21.8002 25.5811 21.4209 26.5222 20.7458 27.2161C20.0706 27.91 19.155 28.2998 18.2002 28.2998H3.8002C2.84542 28.2998 1.92974 27.91 1.25461 27.2161C0.57948 26.5222 0.200195 25.5811 0.200195 24.5998V4.2498ZM5.6002 11.6498C5.12281 11.6498 4.66497 11.8447 4.3274 12.1917C3.98984 12.5386 3.8002 13.0092 3.8002 13.4998C3.8002 13.9905 3.98984 14.461 4.3274 14.808C4.66497 15.1549 5.12281 15.3498 5.6002 15.3498H5.6182C6.09559 15.3498 6.55342 15.1549 6.89099 14.808C7.22855 14.461 7.4182 13.9905 7.4182 13.4998C7.4182 13.0092 7.22855 12.5386 6.89099 12.1917C6.55342 11.8447 6.09559 11.6498 5.6182 11.6498H5.6002ZM11.0002 11.6498C10.5228 11.6498 10.065 11.8447 9.7274 12.1917C9.38984 12.5386 9.2002 13.0092 9.2002 13.4998C9.2002 13.9905 9.38984 14.461 9.7274 14.808C10.065 15.1549 10.5228 15.3498 11.0002 15.3498H16.4002C16.8776 15.3498 17.3354 15.1549 17.673 14.808C18.0106 14.461 18.2002 13.9905 18.2002 13.4998C18.2002 13.0092 18.0106 12.5386 17.673 12.1917C17.3354 11.8447 16.8776 11.6498 16.4002 11.6498H11.0002ZM5.6002 19.0498C5.12281 19.0498 4.66497 19.2447 4.3274 19.5917C3.98984 19.9386 3.8002 20.4092 3.8002 20.8998C3.8002 21.3905 3.98984 21.861 4.3274 22.208C4.66497 22.5549 5.12281 22.7498 5.6002 22.7498H5.6182C6.09559 22.7498 6.55342 22.5549 6.89099 22.208C7.22855 21.861 7.4182 21.3905 7.4182 20.8998C7.4182 20.4092 7.22855 19.9386 6.89099 19.5917C6.55342 19.2447 6.09559 19.0498 5.6182 19.0498H5.6002ZM11.0002 19.0498C10.5228 19.0498 10.065 19.2447 9.7274 19.5917C9.38984 19.9386 9.2002 20.4092 9.2002 20.8998C9.2002 21.3905 9.38984 21.861 9.7274 22.208C10.065 22.5549 10.5228 22.7498 11.0002 22.7498H16.4002C16.8776 22.7498 17.3354 22.5549 17.673 22.208C18.0106 21.861 18.2002 21.3905 18.2002 20.8998C18.2002 20.4092 18.0106 19.9386 17.673 19.5917C17.3354 19.2447 16.8776 19.0498 16.4002 19.0498H11.0002Z" fill="white"/>
</svg>
