<svg width="22" height="20" viewBox="0 0 22 20" fill="none" xmlns="http://www.w3.org/2000/svg">
<path d="M19.4042 0.653809C18.6917 0.653809 17.834 0.883814 16.5366 1.42183L16.3799 1.48592C14.3981 2.30884 12.485 3.1099 10.6782 3.8724C10.3886 3.99479 10.2042 4.27701 10.2042 4.59159C10.2042 5.15045 10.7755 5.52798 11.2906 5.31079C14.238 4.06704 16.5889 3.0929 17.1347 2.86633C18.1389 2.44915 18.8849 2.21733 19.4042 2.21733C20.2828 2.21733 20.5135 2.88164 20.2536 4.44206C20.0927 5.40664 19.7679 7.57709 19.3961 9.94844C19.3216 10.4224 19.6879 10.8528 20.1682 10.8528H20.1692C20.5535 10.8528 20.8819 10.5718 20.9413 10.1916C21.1027 9.1624 21.256 8.16712 21.3919 7.28223C21.5643 6.15931 21.7056 5.23851 21.7958 4.6984C21.9775 3.60726 22.0612 2.37208 21.3024 1.47677C20.9836 1.10177 20.3964 0.653809 19.4042 0.653809ZM7.52779 5.31384C7.40133 5.30066 7.26912 5.31877 7.14022 5.37385C5.3173 6.15302 3.66256 6.86826 2.23808 7.49483C1.67871 7.74118 -0.0222771 8.48963 0.0438686 10.0553C0.0719936 10.7308 0.443592 11.6521 2.05192 12.2037L2.17095 12.2444C2.6199 12.3991 3.55432 12.7216 4.51266 12.9971C5.09599 13.1649 5.62349 13.2454 6.12297 13.2454C6.98963 13.2454 7.66096 12.9983 8.18596 12.7103C8.18335 12.7978 8.18529 12.8862 8.19206 12.9748C8.28685 14.1789 9.21764 14.8393 9.77389 15.2341L9.85222 15.289C10.6736 15.8765 14.3905 18.3317 14.8113 18.6093C15.6035 19.1322 16.3187 19.3865 16.9984 19.3865C18.0672 19.3865 19.4473 18.8155 19.9525 16.0957C20.0864 15.3749 20.2269 14.5742 20.3675 13.7367C20.4478 13.2601 20.0808 12.8242 19.5975 12.8242C19.2162 12.8242 18.8894 13.0992 18.8264 13.4753C18.6868 14.3065 18.5487 15.1004 18.4165 15.8109C18.155 17.2182 17.6833 17.825 16.9974 17.825C16.6203 17.825 16.1792 17.6421 15.6719 17.3072C14.9844 16.8531 11.5133 14.5575 10.7596 14.0185C10.0721 13.5273 9.12345 12.9359 10.313 11.7724C10.7365 11.3578 13.5115 8.70842 15.6729 6.64645C15.9037 6.42613 15.7105 6.09001 15.4542 6.09001C15.3959 6.09001 15.3336 6.10789 15.2732 6.14799C12.3596 8.08028 8.31957 10.7627 7.80551 11.1122C7.29145 11.4611 6.79068 11.6849 6.12297 11.6849C5.78183 11.6849 5.39658 11.6259 4.94398 11.4957C3.932 11.2051 2.94342 10.8589 2.55852 10.7266C1.07675 10.2183 1.42871 9.55944 2.86777 8.92611C4.42766 8.24017 6.11082 7.51439 7.7577 6.81023C8.0452 6.68731 8.23072 6.40507 8.23072 6.09205V6.09103C8.23072 5.67072 7.90719 5.35336 7.52779 5.31384Z" fill="white"/>
</svg>
